<svg width="478" height="434" viewBox="0 0 478 434" fill="none" xmlns="http://www.w3.org/2000/svg">
<path fill-rule="evenodd" clip-rule="evenodd" d="M274.984 113.02L238.5 0L201.888 113.418C213.482 109.263 225.977 107 239 107C251.602 107 263.709 109.119 274.984 113.02ZM328.98 280.29C309.07 308.544 276.191 327 239 327C201.381 327 168.172 308.116 148.337 279.309L117.689 374.25H359.311L328.98 280.29Z" fill="#E1C16E"/>
<path fill-rule="evenodd" clip-rule="evenodd" d="M476.029 164.164C453.334 270.235 355.612 350 238.5 350C122.462 350 25.4595 271.691 1.614 167.075C0.548021 176.236 0 185.554 0 195C0 326.996 107.004 434 239 434C370.996 434 478 326.996 478 195C478 184.551 477.329 174.259 476.029 164.164Z" fill="#EBC86E"/>
<path d="M238.5 144L254.104 192.023L304.598 192.023L263.747 221.703L279.351 269.727L238.5 240.047L197.649 269.727L213.253 221.703L172.402 192.023L222.896 192.023L238.5 144Z" fill="#B7410E"/>
<line x1="238.863" y1="2.22689" x2="2.86299" y2="168.227" stroke="#E1C16E" stroke-width="3"/>
<line x1="475.15" y1="165.236" x2="238.15" y2="2.23592" stroke="#E1C16E" stroke-width="3"/>
</svg>
